<svg width="60" height="60" viewBox="0 0 60 60" fill="none" xmlns="http://www.w3.org/2000/svg">
<circle cx="30" cy="30" r="30" fill="#FFF2F5"/>
<path d="M46.8588 30.6744C46.3637 27.3348 44.8687 24.0088 41.9343 22.1462C39.3519 20.5073 36.1047 20.1611 33.1197 20.4888C32.36 20.572 31.6062 20.6955 30.8597 20.8575C30.8204 20.8458 30.778 20.8375 30.7333 20.8336C27.3281 20.5365 23.6665 20.4626 20.5857 22.1705C17.7042 23.7681 15.7458 26.7249 14.4828 29.6876C13.1148 32.8978 12.4918 36.5482 13.4912 39.9553C14.3442 42.8645 16.3202 45.3146 18.778 47.0484C24.5609 51.1286 32.4782 50.5693 38.7095 47.8474C41.5963 46.5863 44.3109 44.5749 45.6259 41.6327C46.3866 39.931 46.728 38.0811 46.9332 36.2389C47.1399 34.386 47.1321 32.5195 46.8588 30.6744Z" fill="#FF8EA8"/>
<path d="M31.0995 13.8364C29.8239 11.843 27.6929 10.4181 25.3381 10.081C22.6186 9.69199 19.974 10.846 17.2608 10.5513C16.9301 10.5153 16.5887 10.4156 16.2745 10.581C15.9778 10.7366 15.8577 11.0357 15.7716 11.3416C15.6087 11.9164 15.5898 12.5161 15.6744 13.1045C15.8417 14.261 16.4467 15.3552 17.289 16.1601C19.1302 17.9206 22.0116 18.5289 24.4861 18.5255C27.2202 18.5217 30.104 17.2869 31.0572 14.5445C31.0718 14.5041 31.0801 14.4648 31.0854 14.4268C31.2056 14.2702 31.2406 14.0567 31.0995 13.8364Z" fill="#5E9F64"/>
<path d="M37.9666 13.7138C36.7182 14.3577 35.5564 15.1577 34.5001 16.0783C33.4102 14.845 31.9138 13.9677 30.3041 13.6214C29.3937 13.4259 28.4872 13.4172 27.5642 13.5159C26.5779 13.6214 25.5698 13.798 24.5995 13.5062C23.8929 13.2937 23.5909 14.3962 24.2951 14.6077C26.1018 15.1509 27.9518 14.3475 29.7808 14.6797C31.2889 14.953 32.6419 15.7194 33.6602 16.8516C32.3924 18.1092 31.3147 19.5585 30.4831 21.1434C30.1417 21.7936 31.1289 22.3718 31.4708 21.7202C33.0484 18.7123 35.5228 16.2578 38.5439 14.7006C39.1985 14.3631 38.6207 13.3773 37.9666 13.7138Z" fill="#3B8755"/>
<path d="M33.3178 28.8945C32.1997 28.8945 32.1978 30.6297 33.3178 30.6297C34.4354 30.6297 34.4373 28.8945 33.3178 28.8945Z" fill="#F5D18B"/>
<path d="M28.655 36.661C28.6545 36.592 28.6374 36.5282 28.6029 36.4689C28.5723 36.3741 28.5193 36.2924 28.4449 36.2238C28.3938 36.1839 28.3422 36.1441 28.2907 36.1042L28.1083 36.0278C28.0072 35.9962 27.9055 35.9913 27.8044 36.0142C27.7027 36.0186 27.6084 36.0487 27.5209 36.1042C27.4776 36.1358 27.4338 36.1674 27.3905 36.1985C27.2723 36.2686 27.1775 36.3629 27.108 36.4816C27.0365 36.6041 27.0005 36.7369 27 36.8789C27.0092 36.9489 27.0185 37.0185 27.0282 37.0885C27.0657 37.2222 27.1333 37.338 27.231 37.4362C27.3025 37.5126 27.3871 37.5675 27.4849 37.5991C27.5787 37.6487 27.6804 37.6711 27.7893 37.6667C27.9313 37.6667 28.0641 37.6307 28.1871 37.5593C28.3058 37.4892 28.4001 37.3949 28.4702 37.2767C28.5018 37.2334 28.5329 37.1901 28.5645 37.1468C28.5903 37.0861 28.6156 37.0253 28.6413 36.9645C28.6729 36.8638 28.6778 36.7622 28.655 36.661Z" fill="#F5D18B"/>
<path d="M33.655 38.661C33.6545 38.592 33.6374 38.5282 33.6029 38.4689C33.5723 38.3741 33.5193 38.2924 33.4449 38.2238C33.3938 38.1839 33.3422 38.1441 33.2907 38.1042L33.1083 38.0278C33.0072 37.9962 32.9055 37.9913 32.8044 38.0142C32.7027 38.0186 32.6084 38.0487 32.5209 38.1042C32.4776 38.1358 32.4338 38.1674 32.3905 38.1985C32.2723 38.2686 32.1775 38.3629 32.108 38.4816C32.0365 38.6041 32.0005 38.7369 32 38.8789C32.0092 38.9489 32.0185 39.0185 32.0282 39.0885C32.0657 39.2222 32.1333 39.338 32.231 39.4362C32.3025 39.5126 32.3871 39.5675 32.4849 39.5991C32.5787 39.6487 32.6804 39.6711 32.7893 39.6667C32.9313 39.6667 33.0641 39.6307 33.1871 39.5593C33.3058 39.4892 33.4001 39.3949 33.4702 39.2767C33.5018 39.2334 33.5329 39.1901 33.5645 39.1468C33.5903 39.0861 33.6156 39.0253 33.6413 38.9645C33.6729 38.8638 33.6778 38.7622 33.655 38.661Z" fill="#F5D18B"/>
<path d="M17.9157 40.8463C17.9055 40.8137 17.8948 40.7816 17.8841 40.7495L17.817 40.5895C17.7747 40.5117 17.7173 40.449 17.6443 40.4018C17.6025 40.3605 17.5529 40.3313 17.496 40.3157C17.4167 40.2739 17.3302 40.2549 17.2378 40.2583C17.1789 40.2661 17.1196 40.2739 17.0598 40.2822L16.8998 40.3493C16.822 40.3916 16.7592 40.449 16.7121 40.5219C16.6527 40.5866 16.6124 40.6625 16.5919 40.7495C16.5812 40.7816 16.571 40.8137 16.5603 40.8463C16.5268 40.9703 16.5268 41.0948 16.5603 41.2193C16.5934 41.3384 16.6542 41.4415 16.7407 41.5291C16.7889 41.5656 16.8361 41.602 16.8832 41.639C16.9932 41.7022 17.1113 41.7343 17.2378 41.7348C17.335 41.7382 17.425 41.7183 17.5087 41.674C17.5962 41.6458 17.6716 41.5977 17.7353 41.5291C17.8223 41.4415 17.8826 41.3384 17.9157 41.2193C17.9493 41.0948 17.9493 40.9703 17.9157 40.8463Z" fill="#F5D18B"/>
<path d="M18.1953 29.3575C18.1715 29.2836 18.1301 29.2194 18.0718 29.1654C18.0319 29.1343 17.9915 29.1036 17.9512 29.0725L17.8087 29.0122C17.7294 28.9874 17.6496 28.9835 17.5704 29.0015C17.4906 29.0054 17.4167 29.0288 17.3481 29.0725C17.3272 29.0813 17.3063 29.0905 17.2859 29.0993C17.1915 29.1547 17.1176 29.2291 17.0622 29.3225C17.0057 29.4198 16.9775 29.5243 16.9766 29.6367C16.9843 29.6921 16.9916 29.7471 16.9994 29.802C17.0286 29.9075 17.0821 29.999 17.1594 30.0768C17.2158 30.1376 17.2829 30.1809 17.3598 30.2057C17.4342 30.2446 17.5144 30.2626 17.6 30.2592C17.7129 30.2592 17.8174 30.2305 17.9147 30.174C18.0085 30.1186 18.0829 30.0447 18.1384 29.9508C18.1476 29.9299 18.1564 29.909 18.1656 29.8881L18.2254 29.7461C18.2507 29.6663 18.2541 29.5875 18.2361 29.5078C18.2361 29.4543 18.2225 29.4042 18.1953 29.3575Z" fill="#F5D18B"/>
<path d="M25.7222 25.927C25.6974 25.8686 25.6731 25.8108 25.6488 25.7529C25.6026 25.6678 25.5403 25.5997 25.4606 25.5486C25.4154 25.5034 25.3614 25.4723 25.2996 25.4548C25.213 25.4096 25.1192 25.3882 25.019 25.3921C24.9538 25.4008 24.8896 25.4096 24.825 25.4183C24.7666 25.4426 24.7087 25.4669 24.6504 25.4913C24.5658 25.5375 24.4977 25.5997 24.4461 25.6795C24.4009 25.7247 24.3693 25.7782 24.3523 25.8395C24.3065 25.927 24.2856 26.0204 24.2895 26.1206C24.2978 26.1852 24.307 26.2494 24.3153 26.3141C24.3401 26.372 24.3644 26.4299 24.3892 26.4882C24.4539 26.5976 24.5409 26.6847 24.6504 26.7494C24.6654 26.7591 24.6796 26.7683 24.6941 26.7781C24.7943 26.8359 24.9028 26.8656 25.019 26.8656C25.1347 26.8656 25.2427 26.8359 25.3434 26.7781C25.3575 26.7683 25.3721 26.7591 25.3867 26.7494C25.4718 26.7037 25.5403 26.6409 25.5914 26.5617C25.6366 26.5164 25.6678 26.4629 25.6853 26.4012C25.731 26.3141 25.7519 26.2207 25.748 26.1206C25.7392 26.0559 25.731 25.9917 25.7222 25.927Z" fill="#F5D18B"/>
<path d="M27.6836 30.6706C27.6603 30.5991 27.6204 30.5373 27.564 30.4848C27.5504 30.4687 27.5368 30.4517 27.5227 30.4352C27.476 30.3851 27.4205 30.3491 27.3563 30.3282C27.2941 30.2961 27.2279 30.281 27.1565 30.2835C27.1107 30.2898 27.0645 30.2961 27.0183 30.3024C26.9308 30.3267 26.8544 30.371 26.7898 30.4352C26.7761 30.4517 26.762 30.4687 26.7484 30.4848C26.7183 30.5237 26.6886 30.5631 26.6585 30.602C26.639 30.6477 26.6196 30.6934 26.6001 30.7396C26.5758 30.816 26.5729 30.8923 26.5899 30.9692C26.5899 31.0212 26.603 31.0694 26.6288 31.1141C26.6429 31.1632 26.6677 31.2055 26.7032 31.2415C26.729 31.2848 26.7635 31.3193 26.8068 31.3446C26.8428 31.3806 26.8851 31.4054 26.9342 31.419C27.0028 31.455 27.0772 31.4711 27.1565 31.4686C27.2075 31.4613 27.2586 31.455 27.3096 31.4477C27.3554 31.4287 27.4016 31.4093 27.4473 31.3898C27.4862 31.3597 27.5251 31.33 27.564 31.2999C27.5941 31.261 27.6243 31.2221 27.6544 31.1832C27.6739 31.1374 27.6934 31.0917 27.7123 31.0455C27.7366 30.9692 27.74 30.8923 27.723 30.816C27.7225 30.7639 27.7094 30.7153 27.6836 30.6706Z" fill="#F5D18B"/>
<path d="M21.9211 32.8333C21.1817 32.9597 20.5696 33.5041 20.1777 34.2183C19.596 35.2805 19.5636 36.5368 20.4723 37.4239C21.0453 37.9828 21.8775 38.2514 22.6752 38.1771C23.4448 38.1056 24.1807 37.7231 24.6801 37.1341C24.8045 36.987 24.9158 36.8266 24.9893 36.6487C25.057 36.4837 25.0925 36.3073 25.1109 36.1301C25.2531 34.7729 24.2396 33.3782 22.9683 32.9319C22.5993 32.8024 22.248 32.7766 21.9204 32.8326L21.9211 32.8333Z" fill="black"/>
<path d="M22.412 38.4854C21.6069 38.4854 20.8217 38.1779 20.2656 37.6358C19.3428 36.7347 19.2095 35.3717 19.9181 34.0779C20.3792 33.2355 21.0914 32.6758 21.8707 32.5436C22.2616 32.4772 22.6638 32.5147 23.0659 32.6551C24.5293 33.1686 25.5568 34.7096 25.4043 36.1625C25.3801 36.3934 25.3336 36.5897 25.2621 36.7626C25.1848 36.9503 25.0678 37.1341 24.9049 37.3261C24.3541 37.9755 23.5506 38.3934 22.7021 38.4721C22.6048 38.481 22.5083 38.4854 22.4112 38.4854H22.412ZM21.9708 33.1245C21.3705 33.2269 20.8115 33.6778 20.4372 34.3611C19.8524 35.4284 19.9431 36.495 20.6795 37.2143C21.1797 37.7027 21.9154 37.9535 22.6482 37.8851C23.3442 37.8205 24.0028 37.4783 24.455 36.9451C24.5773 36.8009 24.6633 36.6678 24.7172 36.5376C24.7665 36.4176 24.7997 36.2749 24.8181 36.1012C24.9412 34.9282 24.0676 33.6321 22.8714 33.212C22.5652 33.1048 22.2624 33.0752 21.9715 33.1245H21.9708Z" fill="black"/>
<path d="M21.4455 33.4993C20.6774 33.6737 20.0219 34.9483 20.5367 35.5956C20.9271 36.0864 21.6237 36.1702 22.1689 35.8936C23.2993 35.3206 22.8455 33.2919 21.5088 33.4868C21.4876 33.4898 21.4662 33.4942 21.4455 33.4988V33.4993Z" fill="white"/>
<path d="M21.5211 36.247C21.0793 36.247 20.6572 36.0624 20.3832 35.7182C20.1343 35.4054 20.0886 34.9501 20.2581 34.4691C20.4642 33.8828 20.9246 33.4158 21.4026 33.307C21.4284 33.3011 21.4549 33.2958 21.4807 33.2922C22.1436 33.1959 22.7107 33.5731 22.9265 34.2528C23.1274 34.8848 22.9625 35.7116 22.2585 36.0691C22.022 36.1888 21.768 36.247 21.5211 36.247ZM21.4894 33.6908C21.1493 33.7682 20.7869 34.1507 20.6291 34.5993C20.5063 34.9501 20.5283 35.2686 20.6912 35.4731C21.0027 35.8653 21.5867 35.9682 22.0803 35.7182C22.5884 35.4606 22.7018 34.8457 22.5516 34.3721C22.4285 33.9844 22.0963 33.5989 21.5382 33.6814C21.5218 33.6834 21.5057 33.6865 21.4894 33.69V33.6908Z" fill="black"/>
<path d="M23.2932 36.6431C23.3795 36.6503 23.4671 36.6444 23.5452 36.626C23.8021 36.5681 24.0232 36.348 24.1077 36.1023C24.1882 35.87 24.0623 35.6302 23.845 35.5199C23.668 35.43 23.4495 35.4382 23.2712 35.5242C22.9949 35.6588 22.6857 36.0913 22.8624 36.4018C22.9492 36.554 23.1196 36.6268 23.2932 36.6424V36.6431Z" fill="white"/>
<path d="M23.3651 36.8424C23.335 36.8424 23.3054 36.8408 23.276 36.8388C23.0138 36.8161 22.8011 36.6925 22.6921 36.4997C22.6058 36.348 22.5909 36.168 22.6492 35.9796C22.7288 35.7222 22.9497 35.4625 23.1854 35.3478C23.4269 35.2301 23.7076 35.2294 23.9353 35.344C24.2527 35.5051 24.4044 35.8509 24.2954 36.1657C24.1848 36.4841 23.9021 36.7461 23.5898 36.8173C23.5176 36.8337 23.4417 36.8424 23.3659 36.8424H23.3651ZM23.5692 35.6522C23.4977 35.6522 23.4249 35.6686 23.3577 35.7007C23.2362 35.7597 23.0786 35.9236 23.0255 36.095C22.9997 36.1782 23.0028 36.2487 23.0345 36.3046C23.0978 36.4157 23.2495 36.4407 23.3113 36.4461C23.3754 36.4519 23.441 36.4474 23.502 36.4336C23.6833 36.3922 23.8564 36.229 23.9226 36.037C23.9729 35.8927 23.8771 35.7554 23.7563 35.6941C23.7002 35.6655 23.6356 35.6514 23.5692 35.6514V35.6522Z" fill="black"/>
<path d="M37.0462 32.8509C36.2669 32.6906 35.4222 32.9691 34.9036 33.6305C34.5781 34.0454 34.3904 34.5551 34.2954 35.0729C34.106 36.1065 34.3587 37.323 35.2476 37.885C36.4306 38.6331 38.7968 37.9652 39.1201 36.5087C39.2182 36.069 39.163 35.6076 39.0532 35.1707C38.8706 34.4397 38.5178 33.7232 37.9249 33.2577C37.659 33.0493 37.3577 32.9148 37.0462 32.8509Z" fill="black"/>
<path d="M36.4613 38.4921C35.9466 38.4921 35.4647 38.3721 35.0891 38.1346C33.9947 37.4424 33.8208 36.0242 34.0049 35.0202C34.1191 34.3956 34.3438 33.8668 34.6716 33.4491C35.2408 32.7229 36.1968 32.3743 37.1058 32.5618C37.4748 32.6376 37.8121 32.7944 38.1073 33.026C38.6884 33.4828 39.1149 34.1993 39.3403 35.0996C39.481 35.6637 39.5037 36.1455 39.4087 36.5729C39.2548 37.2664 38.6915 37.8616 37.8621 38.2058C37.4033 38.3963 36.9194 38.4913 36.4613 38.4913V38.4921ZM36.6122 33.1026C36.0436 33.1026 35.4913 33.3615 35.1364 33.8129C34.8683 34.1551 34.6834 34.5971 34.5861 35.1267C34.4234 36.0153 34.6142 37.1357 35.4058 37.6364C35.9486 37.9801 36.8451 37.9903 37.6351 37.6622C38.2842 37.3931 38.7201 36.9496 38.8322 36.4463C38.9065 36.1102 38.885 35.7168 38.7673 35.2436C38.6325 34.7054 38.346 33.9646 37.7429 33.4909C37.5205 33.3158 37.2657 33.1981 36.9871 33.1409C36.8627 33.1151 36.7374 33.1026 36.6122 33.1026Z" fill="black"/>
<path d="M35.3129 33.5662C34.6074 33.9155 34.2685 35.3079 34.9212 35.8171C35.4153 36.2031 36.1129 36.1214 36.5781 35.7249C37.543 34.9034 36.6269 33.0371 35.3726 33.5397C35.3527 33.5478 35.3328 33.5565 35.3136 33.5662H35.3129Z" fill="white"/>
<path d="M35.667 36.2647C35.3547 36.2647 35.0498 36.1684 34.7996 35.9733C34.4843 35.7277 34.3334 35.2952 34.3849 34.7883C34.4483 34.1706 34.7856 33.6086 35.2253 33.3908C35.2495 33.3791 35.2738 33.3681 35.2988 33.3576C35.919 33.1092 36.5597 33.3431 36.9294 33.9544C37.2726 34.5222 37.3066 35.3644 36.7055 35.8755C36.4029 36.1337 36.0309 36.2647 35.667 36.2647ZM35.7901 33.6536C35.6818 33.6536 35.5661 33.6748 35.4454 33.7233C35.43 33.7291 35.4152 33.7358 35.4004 33.7432C35.0874 33.8984 34.8254 34.3545 34.7766 34.8281C34.7391 35.1981 34.8356 35.502 35.0419 35.6631C35.4367 35.9713 36.0288 35.935 36.4494 35.5771C36.8832 35.2076 36.8492 34.584 36.5921 34.1581C36.4302 33.891 36.1496 33.6536 35.7901 33.6536Z" fill="black"/>
<path d="M19.7399 31.7868C19.6198 31.7868 19.5072 31.7133 19.4628 31.594C19.4061 31.4411 19.4843 31.2721 19.6375 31.2154C21 30.5 22 30 23.2301 29.0733C23.3532 28.9661 23.5396 28.9778 23.6471 29.0999C23.7546 29.2219 23.7429 29.4088 23.6205 29.5161C22.5 30.5 21.2507 31.2154 19.8422 31.7684C19.8083 31.781 19.7738 31.7868 19.7399 31.7868Z" fill="black"/>
<path d="M38.5982 24.6719C37.7024 24.6719 37.7009 26.0623 38.5982 26.0623C39.4945 26.0623 39.4959 24.6719 38.5982 24.6719Z" fill="#F5D18B"/>
<path d="M42.9776 30.3156C42.9338 30.1595 42.8546 30.0243 42.7403 29.9096C42.6785 29.8614 42.6163 29.8138 42.554 29.7656C42.4105 29.682 42.2549 29.6401 42.0886 29.6396C42.0672 29.6406 42.0463 29.6421 42.0249 29.6435C42.0137 29.6435 42.0035 29.6445 41.9928 29.645C41.9874 29.6455 41.9831 29.6455 41.9777 29.646C41.9753 29.646 41.9729 29.646 41.9704 29.646C41.7725 29.6572 41.6786 29.6786 41.504 29.7719C41.3669 29.8531 41.2575 29.9626 41.1763 30.0997C41.0936 30.2417 41.0522 30.3954 41.0518 30.5603C41.0522 30.7251 41.0936 30.8783 41.1763 31.0208C41.2575 31.1579 41.3669 31.2669 41.504 31.3481C41.6777 31.4415 41.7715 31.4634 41.9694 31.4741C41.9724 31.4745 41.9748 31.4745 41.9777 31.475C41.9831 31.475 41.9874 31.475 41.9928 31.4755C42.0035 31.476 42.0137 31.4765 42.0249 31.477C42.0463 31.4784 42.0672 31.4794 42.0886 31.4804C42.2155 31.4857 42.3342 31.459 42.4441 31.4011C42.5584 31.3641 42.6571 31.3009 42.7403 31.211C42.8302 31.1278 42.8939 31.0286 42.9309 30.9148C42.9888 30.8054 43.015 30.6867 43.0102 30.5603C42.9995 30.4786 42.9888 30.3969 42.9776 30.3156Z" fill="#F5D18B"/>
<path d="M38.8052 43.2527C38.7799 43.1943 38.7556 43.1355 38.7308 43.0771C38.6924 43.0275 38.6545 42.9774 38.6155 42.9283C38.5659 42.8899 38.5163 42.8515 38.4667 42.8131C38.4084 42.7883 38.3495 42.764 38.2912 42.7392C38.226 42.7304 38.1603 42.7216 38.0952 42.7129C38.03 42.7216 37.9648 42.7304 37.8997 42.7392C37.8413 42.764 37.7825 42.7883 37.7236 42.8131C37.674 42.8515 37.6244 42.8899 37.5748 42.9283C37.5364 42.9774 37.498 43.0275 37.46 43.0771C37.4061 43.1613 37.3769 43.2527 37.3725 43.35C37.3681 43.383 37.3638 43.4151 37.3594 43.4482C37.3681 43.5129 37.3769 43.5781 37.3856 43.6432C37.4104 43.7016 37.4348 43.7604 37.46 43.8188C37.5062 43.9044 37.5695 43.9734 37.6492 44.025C37.674 44.0444 37.6988 44.0634 37.7236 44.0824C37.7825 44.1072 37.8413 44.132 37.8997 44.1563C37.9974 44.1869 38.0952 44.1918 38.1929 44.1699C38.2912 44.1655 38.3821 44.1364 38.4667 44.0824C38.4779 44.077 38.4891 44.0712 38.4998 44.0654L38.5017 44.0644C38.5246 44.0527 38.492 44.0722 38.5616 44.0187C38.6311 43.9647 38.6647 43.9467 38.7128 43.8543L38.7148 43.8499C38.7162 43.847 38.7177 43.8446 38.7191 43.8416C38.722 43.8358 38.725 43.8305 38.7274 43.8251C38.7284 43.8232 38.7293 43.8222 38.7298 43.8207C38.7303 43.8202 38.7303 43.8198 38.7303 43.8193C38.7313 43.8183 38.8042 43.6452 38.8052 43.6432C38.8096 43.6106 38.8135 43.5781 38.8179 43.5455C38.8402 43.4482 38.8358 43.35 38.8052 43.2527Z" fill="#F5D18B"/>
<path d="M42.9113 40.9824C41.9639 40.9824 41.9624 42.4521 42.9113 42.4521C43.8581 42.4521 43.8601 40.9824 42.9113 40.9824Z" fill="#F5D18B"/>
<path d="M37.8192 36.3428C37.8743 36.2759 37.9185 36.2001 37.9479 36.1258C38.0451 35.8817 37.9885 35.575 37.8337 35.3661C37.6872 35.1682 37.4185 35.1366 37.204 35.2535C37.0302 35.3485 36.9124 35.5331 36.8836 35.7295C36.8389 36.0326 37.0215 36.5325 37.3779 36.5622C37.5526 36.5767 37.7086 36.4774 37.8199 36.3428H37.8192Z" fill="white"/>
<path d="M37.4103 36.7602C37.394 36.7602 37.3771 36.7602 37.361 36.7579C37.1864 36.7431 37.0296 36.6535 36.9073 36.499C36.74 36.2878 36.6501 35.9592 36.6884 35.7003C36.7283 35.4347 36.8851 35.2037 37.1098 35.0808C37.422 34.9103 37.7933 34.9807 37.9922 35.2486C38.1932 35.5193 38.2491 35.901 38.1314 36.1982C38.0939 36.2937 38.0384 36.3872 37.9715 36.4681C37.8168 36.6558 37.6151 36.7602 37.4111 36.7602H37.4103ZM37.4655 35.3824C37.4072 35.3824 37.3485 35.3987 37.2982 35.4258C37.1833 35.4884 37.0988 35.6155 37.0781 35.7575C37.0582 35.8915 37.1047 36.1137 37.2157 36.2541C37.2704 36.3226 37.3299 36.3601 37.394 36.3652C37.5214 36.3762 37.6276 36.2651 37.6674 36.2174C37.7085 36.1681 37.7417 36.1106 37.7645 36.0532C37.8331 35.8803 37.7961 35.6457 37.6753 35.4825C37.623 35.4118 37.5451 35.3824 37.4662 35.3824H37.4655Z" fill="black"/>
<path d="M39.8402 31.7787C39.8188 31.7787 39.8624 31.784 39.8402 31.7787C38.5 31.1955 37.5 30.5 36.2545 29.4734C36.1557 29.3432 36.1154 29.1512 36.2451 29.0526C36.3753 28.9541 36.5602 28.9798 36.659 29.1093C37.8414 29.9927 38.8412 30.4927 39.9051 31.1955C40.0642 31.2315 40.1643 31.389 40.128 31.5486C40.0971 31.6852 39.9751 31.7787 39.8402 31.7787Z" fill="black"/>
<circle cx="30" cy="30" r="30" fill="#FFF2F5"/>
<path d="M46.8588 30.6744C46.3637 27.3348 44.8687 24.0088 41.9343 22.1462C39.3519 20.5073 36.1047 20.1611 33.1197 20.4888C32.36 20.572 31.6062 20.6955 30.8597 20.8575C30.8204 20.8458 30.778 20.8375 30.7333 20.8336C27.3281 20.5365 23.6665 20.4626 20.5857 22.1705C17.7042 23.7681 15.7458 26.7249 14.4828 29.6876C13.1148 32.8978 12.4918 36.5482 13.4912 39.9553C14.3442 42.8645 16.3202 45.3146 18.778 47.0484C24.5609 51.1286 32.4782 50.5693 38.7095 47.8474C41.5963 46.5863 44.3109 44.5749 45.6259 41.6327C46.3866 39.931 46.728 38.0811 46.9332 36.2389C47.1399 34.386 47.1321 32.5195 46.8588 30.6744Z" fill="#FF8EA8"/>
<path d="M31.0995 13.8364C29.8239 11.843 27.6929 10.4181 25.3381 10.081C22.6186 9.69199 19.974 10.846 17.2608 10.5513C16.9301 10.5153 16.5887 10.4156 16.2745 10.581C15.9778 10.7366 15.8577 11.0357 15.7716 11.3416C15.6087 11.9164 15.5898 12.5161 15.6744 13.1045C15.8417 14.261 16.4467 15.3552 17.289 16.1601C19.1302 17.9206 22.0116 18.5289 24.4861 18.5255C27.2202 18.5217 30.104 17.2869 31.0572 14.5445C31.0718 14.5041 31.0801 14.4648 31.0854 14.4268C31.2056 14.2702 31.2406 14.0567 31.0995 13.8364Z" fill="#5E9F64"/>
<path d="M37.9666 13.7138C36.7182 14.3577 35.5564 15.1577 34.5001 16.0783C33.4102 14.845 31.9138 13.9677 30.3041 13.6214C29.3937 13.4259 28.4872 13.4172 27.5642 13.5159C26.5779 13.6214 25.5698 13.798 24.5995 13.5062C23.8929 13.2937 23.5909 14.3962 24.2951 14.6077C26.1018 15.1509 27.9518 14.3475 29.7808 14.6797C31.2889 14.953 32.6419 15.7194 33.6602 16.8516C32.3924 18.1092 31.3147 19.5585 30.4831 21.1434C30.1417 21.7936 31.1289 22.3718 31.4708 21.7202C33.0484 18.7123 35.5228 16.2578 38.5439 14.7006C39.1985 14.3631 38.6207 13.3773 37.9666 13.7138Z" fill="#3B8755"/>
<path d="M32.8393 25C31.7212 25 31.7193 26.7352 32.8393 26.7352C33.9568 26.7352 33.9588 25 32.8393 25Z" fill="#F5D18B"/>
<path d="M38.655 45.661C38.6545 45.592 38.6374 45.5282 38.6029 45.4689C38.5723 45.3741 38.5193 45.2924 38.4449 45.2238C38.3938 45.1839 38.3422 45.1441 38.2907 45.1042L38.1083 45.0278C38.0072 44.9962 37.9055 44.9913 37.8044 45.0142C37.7027 45.0186 37.6084 45.0487 37.5209 45.1042C37.4776 45.1358 37.4338 45.1674 37.3905 45.1985C37.2723 45.2686 37.1775 45.3629 37.108 45.4816C37.0365 45.6041 37.0005 45.7369 37 45.8789C37.0092 45.9489 37.0185 46.0185 37.0282 46.0885C37.0657 46.2222 37.1333 46.338 37.231 46.4362C37.3025 46.5126 37.3871 46.5675 37.4849 46.5991C37.5787 46.6487 37.6804 46.6711 37.7893 46.6667C37.9313 46.6667 38.0641 46.6307 38.1871 46.5593C38.3058 46.4892 38.4001 46.3949 38.4702 46.2767C38.5018 46.2334 38.5329 46.1901 38.5645 46.1468C38.5903 46.0861 38.6156 46.0253 38.6413 45.9645C38.6729 45.8638 38.6778 45.7622 38.655 45.661Z" fill="#F5D18B"/>
<path d="M31.655 47.661C31.6545 47.592 31.6374 47.5282 31.6029 47.4689C31.5723 47.3741 31.5193 47.2924 31.4449 47.2238C31.3938 47.1839 31.3422 47.1441 31.2907 47.1042L31.1083 47.0278C31.0072 46.9962 30.9055 46.9913 30.8044 47.0142C30.7027 47.0186 30.6084 47.0487 30.5209 47.1042C30.4776 47.1358 30.4338 47.1674 30.3905 47.1985C30.2723 47.2686 30.1775 47.3629 30.108 47.4816C30.0365 47.6041 30.0005 47.7369 30 47.8789C30.0092 47.9489 30.0185 48.0185 30.0282 48.0885C30.0657 48.2222 30.1333 48.338 30.231 48.4362C30.3025 48.5126 30.3871 48.5675 30.4849 48.5991C30.5787 48.6487 30.6804 48.6711 30.7893 48.6667C30.9313 48.6667 31.0641 48.6307 31.1871 48.5593C31.3058 48.4892 31.4001 48.3949 31.4702 48.2767C31.5018 48.2334 31.5329 48.1901 31.5645 48.1468C31.5903 48.0861 31.6156 48.0253 31.6413 47.9645C31.6729 47.8638 31.6778 47.7622 31.655 47.661Z" fill="#F5D18B"/>
<path d="M17.3805 35.5884C17.3703 35.5558 17.3596 35.5237 17.3489 35.4916L17.2818 35.3316C17.2395 35.2538 17.1821 35.191 17.1092 35.1439C17.0674 35.1025 17.0178 35.0733 16.9609 35.0578C16.8816 35.016 16.795 34.997 16.7026 35.0004C16.6438 35.0082 16.5844 35.016 16.5246 35.0242L16.3646 35.0913C16.2868 35.1336 16.2241 35.191 16.1769 35.264C16.1176 35.3287 16.0772 35.4045 16.0568 35.4916C16.0461 35.5237 16.0359 35.5558 16.0252 35.5884C15.9916 35.7124 15.9916 35.8369 16.0252 35.9614C16.0582 36.0805 16.119 36.1836 16.2056 36.2711C16.2537 36.3076 16.3009 36.3441 16.3481 36.3811C16.458 36.4443 16.5762 36.4764 16.7026 36.4769C16.7999 36.4803 16.8898 36.4603 16.9735 36.4161C17.061 36.3879 17.1364 36.3397 17.2001 36.2711C17.2872 36.1836 17.3475 36.0805 17.3805 35.9614C17.4141 35.8369 17.4141 35.7124 17.3805 35.5884Z" fill="#F5D18B"/>
<path d="M18.1953 29.3574C18.1715 29.2835 18.1301 29.2193 18.0718 29.1653C18.0319 29.1342 17.9915 29.1035 17.9512 29.0724L17.8087 29.0121C17.7294 28.9873 17.6496 28.9834 17.5704 29.0014C17.4906 29.0053 17.4167 29.0286 17.3481 29.0724C17.3272 29.0812 17.3063 29.0904 17.2859 29.0991C17.1915 29.1546 17.1176 29.229 17.0622 29.3224C17.0057 29.4196 16.9775 29.5242 16.9766 29.6365C16.9843 29.692 16.9916 29.7469 16.9994 29.8019C17.0286 29.9074 17.0821 29.9988 17.1594 30.0767C17.2158 30.1374 17.2829 30.1807 17.3598 30.2055C17.4342 30.2444 17.5144 30.2624 17.6 30.259C17.7129 30.259 17.8174 30.2303 17.9147 30.1739C18.0085 30.1185 18.0829 30.0446 18.1384 29.9507C18.1476 29.9298 18.1564 29.9089 18.1656 29.888L18.2254 29.746C18.2507 29.6662 18.2541 29.5874 18.2361 29.5077C18.2361 29.4542 18.2225 29.4041 18.1953 29.3574Z" fill="#F5D18B"/>
<path d="M25.7222 25.927C25.6974 25.8686 25.6731 25.8108 25.6488 25.7529C25.6026 25.6678 25.5403 25.5997 25.4606 25.5486C25.4154 25.5034 25.3614 25.4723 25.2996 25.4548C25.213 25.4096 25.1192 25.3882 25.019 25.3921C24.9538 25.4008 24.8896 25.4096 24.825 25.4183C24.7666 25.4426 24.7087 25.4669 24.6504 25.4913C24.5658 25.5375 24.4977 25.5997 24.4461 25.6795C24.4009 25.7247 24.3693 25.7782 24.3523 25.8395C24.3065 25.927 24.2856 26.0204 24.2895 26.1206C24.2978 26.1852 24.307 26.2494 24.3153 26.3141C24.3401 26.372 24.3644 26.4299 24.3892 26.4882C24.4539 26.5976 24.5409 26.6847 24.6504 26.7494C24.6654 26.7591 24.6796 26.7683 24.6941 26.7781C24.7943 26.8359 24.9028 26.8656 25.019 26.8656C25.1347 26.8656 25.2427 26.8359 25.3434 26.7781C25.3575 26.7683 25.3721 26.7591 25.3867 26.7494C25.4718 26.7037 25.5403 26.6409 25.5914 26.5617C25.6366 26.5164 25.6678 26.4629 25.6853 26.4012C25.731 26.3141 25.7519 26.2207 25.748 26.1206C25.7392 26.0559 25.731 25.9917 25.7222 25.927Z" fill="#F5D18B"/>
<path d="M30.1045 30.3874C30.0812 30.3159 30.0413 30.2541 29.9849 30.2016C29.9713 30.1855 29.9577 30.1685 29.9436 30.152C29.8969 30.1019 29.8414 30.0659 29.7772 30.045C29.715 30.0129 29.6488 29.9978 29.5774 30.0003C29.5316 30.0066 29.4854 30.0129 29.4392 30.0192C29.3517 30.0435 29.2753 30.0878 29.2107 30.152C29.197 30.1685 29.1829 30.1855 29.1693 30.2016C29.1392 30.2405 29.1095 30.2799 29.0794 30.3188C29.0599 30.3645 29.0405 30.4102 29.021 30.4564C28.9967 30.5328 28.9938 30.6091 29.0108 30.686C29.0108 30.738 29.0239 30.7862 29.0497 30.8309C29.0638 30.88 29.0886 30.9223 29.1241 30.9583C29.1499 31.0016 29.1844 31.0361 29.2277 31.0614C29.2637 31.0974 29.306 31.1222 29.3551 31.1358C29.4237 31.1718 29.4981 31.1879 29.5774 31.1854C29.6284 31.1781 29.6795 31.1718 29.7305 31.1645C29.7763 31.1455 29.8225 31.1261 29.8682 31.1066C29.9071 31.0765 29.946 31.0468 29.9849 31.0167C30.015 30.9778 30.0452 30.9389 30.0753 30.8999C30.0948 30.8542 30.1143 30.8085 30.1332 30.7623C30.1575 30.686 30.1609 30.6091 30.1439 30.5328C30.1434 30.4807 30.1303 30.4321 30.1045 30.3874Z" fill="#F5D18B"/>
<path d="M38.5982 24.6719C37.7024 24.6719 37.7009 26.0623 38.5982 26.0623C39.4945 26.0623 39.4959 24.6719 38.5982 24.6719Z" fill="#F5D18B"/>
<path d="M42.9776 30.3156C42.9338 30.1595 42.8546 30.0243 42.7403 29.9096C42.6785 29.8614 42.6163 29.8138 42.554 29.7656C42.4105 29.682 42.2549 29.6401 42.0886 29.6396C42.0672 29.6406 42.0463 29.6421 42.0249 29.6435C42.0137 29.6435 42.0035 29.6445 41.9928 29.645C41.9874 29.6455 41.9831 29.6455 41.9777 29.646C41.9753 29.646 41.9729 29.646 41.9704 29.646C41.7725 29.6572 41.6786 29.6786 41.504 29.7719C41.3669 29.8531 41.2575 29.9626 41.1763 30.0997C41.0936 30.2417 41.0522 30.3954 41.0518 30.5603C41.0522 30.7251 41.0936 30.8783 41.1763 31.0208C41.2575 31.1579 41.3669 31.2669 41.504 31.3481C41.6777 31.4415 41.7715 31.4634 41.9694 31.4741C41.9724 31.4745 41.9748 31.4745 41.9777 31.475C41.9831 31.475 41.9874 31.475 41.9928 31.4755C42.0035 31.476 42.0137 31.4765 42.0249 31.477C42.0463 31.4784 42.0672 31.4794 42.0886 31.4804C42.2155 31.4857 42.3342 31.459 42.4441 31.4011C42.5584 31.3641 42.6571 31.3009 42.7403 31.211C42.8302 31.1278 42.8939 31.0286 42.9309 30.9148C42.9888 30.8054 43.015 30.6867 43.0102 30.5603C42.9995 30.4786 42.9888 30.3969 42.9776 30.3156Z" fill="#F5D18B"/>
<path d="M27.4458 44.5398C27.4205 44.4815 27.3962 44.4226 27.3714 44.3643C27.333 44.3147 27.2951 44.2646 27.2562 44.2154C27.2066 44.177 27.157 44.1386 27.1074 44.1002C27.049 44.0754 26.9902 44.0511 26.9318 44.0263C26.8666 44.0175 26.801 44.0088 26.7358 44C26.6706 44.0088 26.6055 44.0175 26.5403 44.0263C26.4819 44.0511 26.4231 44.0754 26.3643 44.1002C26.3147 44.1386 26.265 44.177 26.2154 44.2154C26.177 44.2646 26.1386 44.3147 26.1007 44.3643C26.0467 44.4484 26.0175 44.5398 26.0131 44.6371C26.0088 44.6702 26.0044 44.7022 26 44.7353C26.0088 44.8 26.0175 44.8652 26.0263 44.9303C26.0511 44.9887 26.0754 45.0475 26.1007 45.1059C26.1469 45.1915 26.2101 45.2605 26.2898 45.3121C26.3147 45.3316 26.3395 45.3505 26.3643 45.3695C26.4231 45.3943 26.4819 45.4191 26.5403 45.4434C26.6381 45.474 26.7358 45.4789 26.8336 45.457C26.9318 45.4526 27.0227 45.4235 27.1074 45.3695C27.1185 45.3641 27.1297 45.3583 27.1404 45.3525L27.1424 45.3515C27.1652 45.3398 27.1326 45.3593 27.2022 45.3058C27.2717 45.2518 27.3053 45.2338 27.3534 45.1414L27.3554 45.137C27.3568 45.1341 27.3583 45.1317 27.3598 45.1288C27.3627 45.1229 27.3656 45.1176 27.368 45.1122C27.369 45.1103 27.37 45.1093 27.3705 45.1078C27.3709 45.1074 27.3709 45.1069 27.3709 45.1064C27.3719 45.1054 27.4449 44.9323 27.4458 44.9303C27.4502 44.8978 27.4541 44.8652 27.4585 44.8326C27.4809 44.7353 27.4765 44.6371 27.4458 44.5398Z" fill="#F5D18B"/>
<path d="M44.7111 36C43.7637 36 43.7622 37.4697 44.7111 37.4697C45.6579 37.4697 45.6599 36 44.7111 36Z" fill="#F5D18B"/>
<path d="M21.3148 44.5504C21.3065 44.5242 21.2982 44.4984 21.2895 44.4716C21.2681 44.4211 21.2462 44.3695 21.2248 44.3185C21.1844 44.2436 21.1295 44.1833 21.059 44.1385C21.0191 44.0986 20.9719 44.0709 20.9174 44.0558C20.8406 44.0155 20.7584 43.997 20.6699 44.0004C20.6125 44.0077 20.5556 44.016 20.4987 44.0233C20.4477 44.0447 20.3961 44.0665 20.345 44.0879C20.2702 44.1283 20.2098 44.1833 20.1646 44.2538C20.1077 44.3155 20.0693 44.3885 20.0494 44.4716L20.0241 44.5504C19.992 44.6686 19.992 44.7873 20.0241 44.9059C20.0562 45.0188 20.1131 45.1175 20.1962 45.2006C20.2415 45.2357 20.2867 45.2702 20.3319 45.3052C20.436 45.366 20.5488 45.3961 20.6699 45.3966C20.7618 45.4 20.8479 45.3806 20.9272 45.3388C21.0103 45.312 21.0823 45.2658 21.1431 45.2006C21.2258 45.1175 21.2832 45.0188 21.3148 44.9059C21.3469 44.7873 21.3469 44.6686 21.3148 44.5504Z" fill="#F5D18B"/>
<path d="M40.1539 38.1805L40.1338 38.1719C40.1861 38.2006 40.1789 38.1955 40.1539 38.1805Z" fill="#F2F5FE"/>
<g clip-path="url(#clip0_298_3844)">
<path d="M37.5738 41.3726C36.2133 41.6165 34.797 40.9706 34.6031 39.894C34.4091 38.8174 35.3624 37.7954 36.8733 37.4734C38.2249 37.186 39.7482 37.5098 40.0614 38.9631C40.3858 40.4658 38.9337 41.1281 37.5738 41.3726Z" fill="#F9A5B4"/>
<path d="M23.453 41.3408C24.8047 41.6405 26.2439 41.0517 26.4808 39.9833C26.7176 38.9149 25.8073 37.8565 24.311 37.4739C22.9723 37.1313 21.4367 37.394 21.0647 38.8332C20.6804 40.3206 22.1043 41.0417 23.453 41.3408Z" fill="#F9A5B4"/>
<path d="M36.533 39.36C36.4983 39.3499 36.4611 39.3538 36.4293 39.371C36.3975 39.3882 36.3738 39.4171 36.3632 39.4516C36.353 39.4935 36.3405 39.5347 36.3256 39.5751C36.3074 39.6262 36.2756 39.6708 36.2597 39.7231C36.2508 39.7541 36.2522 39.7872 36.2637 39.8174C36.2753 39.8475 36.2964 39.873 36.3238 39.89C36.3571 39.9093 36.3966 39.915 36.434 39.9059C36.4715 39.8968 36.504 39.8737 36.5248 39.8413C36.5998 39.7413 36.6372 39.6181 36.6306 39.4934C36.6304 39.4637 36.6209 39.4348 36.6034 39.4109C36.5859 39.3869 36.5612 39.3691 36.533 39.36Z" fill="#F34D65"/>
<path d="M37.0871 39.453C37.0819 39.5063 37.0717 39.5591 37.0565 39.6105C37.0371 39.6739 37.0159 39.7362 37.0512 39.7973C37.0618 39.8154 37.0779 39.8297 37.0971 39.838C37.1163 39.8464 37.1377 39.8484 37.1582 39.8438C37.3215 39.8197 37.3027 39.5752 37.2933 39.4565C37.2918 39.4304 37.2806 39.4059 37.2617 39.3878C37.2429 39.3697 37.2179 39.3593 37.1918 39.3589C37.1657 39.3585 37.1404 39.3679 37.1209 39.3853C37.1015 39.4028 37.0894 39.427 37.0871 39.453Z" fill="#F34D65"/>
<path d="M38.2072 39.3425C38.1914 39.2143 37.9869 39.2191 37.9587 39.3378C37.9463 39.3897 37.9288 39.4403 37.9064 39.4888C37.8723 39.5611 37.8317 39.6498 37.8787 39.7239C37.8882 39.7413 37.9021 39.7559 37.919 39.7662C37.9359 39.7766 37.9553 39.7822 37.9751 39.7826C38.0768 39.7774 38.1326 39.6927 38.169 39.6063C38.2066 39.5238 38.2198 39.4323 38.2072 39.3425Z" fill="#F34D65"/>
<path d="M24.5712 39.3725C24.6063 39.3635 24.6435 39.3688 24.6746 39.3872C24.7058 39.4056 24.7284 39.4356 24.7375 39.4706C24.7459 39.5128 24.7569 39.5544 24.7704 39.5952C24.7863 39.6469 24.8163 39.6927 24.8292 39.7456C24.8369 39.7769 24.8342 39.8098 24.8214 39.8394C24.8087 39.869 24.7867 39.8937 24.7587 39.9096C24.7243 39.9273 24.6844 39.9311 24.6473 39.9201C24.6102 39.9092 24.5788 39.8844 24.5595 39.8508C24.4883 39.7478 24.4561 39.6228 24.4684 39.4982C24.4704 39.4692 24.4814 39.4415 24.4998 39.419C24.5182 39.3964 24.5432 39.3802 24.5712 39.3725Z" fill="#F34D65"/>
<path d="M24.0141 39.4426C24.0172 39.4964 24.0255 39.5497 24.0387 39.6019C24.0558 39.6659 24.074 39.7294 24.0387 39.7888C24.0275 39.8064 24.0109 39.8201 23.9913 39.8277C23.9718 39.8353 23.9503 39.8365 23.93 39.8311C23.7678 39.7993 23.7966 39.5566 23.8125 39.4391C23.8176 39.4159 23.8306 39.3952 23.8492 39.3805C23.8678 39.3658 23.891 39.358 23.9147 39.3584C23.9384 39.3588 23.9613 39.3674 23.9794 39.3828C23.9975 39.3981 24.0098 39.4193 24.0141 39.4426Z" fill="#F34D65"/>
<path d="M22.8989 39.2868C22.92 39.1592 23.124 39.1692 23.1475 39.2921C23.1575 39.3444 23.1728 39.3956 23.1933 39.4448C23.2244 39.5183 23.2621 39.6088 23.2121 39.6799C23.2018 39.6967 23.1873 39.7106 23.1699 39.7201C23.1526 39.7296 23.1331 39.7344 23.1134 39.734C23.0117 39.7252 22.9594 39.6382 22.9265 39.5495C22.8929 39.4662 22.8833 39.3752 22.8989 39.2868Z" fill="#F34D65"/>
<path d="M38.6092 38.5849C38.6035 38.5826 38.598 38.5799 38.5928 38.5767C38.6357 38.599 38.6298 38.5949 38.6092 38.5849Z" fill="#F2F5FE"/>
<path d="M38.6715 37.9502C38.5593 37.8978 38.4288 37.9114 38.3583 38.026C38.328 38.0773 38.3186 38.1384 38.3323 38.1965C38.346 38.2545 38.3817 38.3051 38.4318 38.3374L38.4429 38.3492L38.4465 38.3562C38.4465 38.3615 38.4835 38.4585 38.4811 38.4538C38.4914 38.482 38.5074 38.5078 38.5282 38.5296C38.5329 38.5337 38.5828 38.5654 38.6092 38.5819C38.6519 38.6033 38.7013 38.6071 38.7468 38.5925L38.7703 38.5837H38.7732C38.8144 38.5667 38.8499 38.5383 38.8756 38.5019C38.9013 38.4655 38.9161 38.4225 38.9183 38.378C38.9238 38.2903 38.9032 38.203 38.8594 38.1269C38.8155 38.0508 38.7502 37.9893 38.6715 37.9502Z" fill="#F2F5FE"/>
<path d="M22.5299 38.511L22.5463 38.5039C22.5028 38.5262 22.5087 38.5262 22.5299 38.511Z" fill="#F2F5FE"/>
<path d="M22.2286 38.2913C22.2294 38.3358 22.2427 38.3792 22.2669 38.4166C22.2911 38.454 22.3253 38.4839 22.3656 38.5029H22.3685C22.3756 38.5058 22.3832 38.5099 22.3914 38.5128C22.4365 38.5288 22.486 38.5267 22.5295 38.507C22.5566 38.4917 22.6077 38.4623 22.6124 38.4582C22.6342 38.4374 22.6512 38.4121 22.6623 38.3841C22.6623 38.3888 22.7017 38.293 22.7011 38.2889C22.7023 38.2863 22.7037 38.2837 22.7052 38.2813L22.717 38.2701C22.7682 38.2398 22.8058 38.1908 22.8217 38.1333C22.8376 38.0759 22.8306 38.0146 22.8022 37.9622C22.737 37.8446 22.6071 37.8264 22.4925 37.874C22.4124 37.9099 22.3446 37.9687 22.2977 38.0429C22.2507 38.1171 22.2267 38.2035 22.2286 38.2913ZM22.6988 38.2913C22.6858 38.3066 22.6864 38.306 22.6988 38.2913V38.2913Z" fill="#F2F5FE"/>
<path d="M42.8563 29.5748C41.6663 29.539 40.5485 29.281 39.3702 29.1811C38.2736 29.0888 37.1517 29.2358 36.0657 29.3797C34.8674 29.5378 33.6997 29.7288 32.5679 30.1672C31.2356 30.6826 29.8258 30.4281 28.4906 30.082C27.9722 29.948 27.505 29.7053 27.0108 29.5061C26.5406 29.3163 25.8942 29.3944 25.3976 29.3944C24.1159 29.3944 22.8877 29.482 21.61 29.5807C20.6915 29.6512 19.5661 29.4691 18.7387 29.9615C18.0811 30.3529 18.2685 31.4425 18.3937 32.0466C18.4807 32.468 19.0131 32.5085 19.2623 32.24C19.2669 32.8439 19.3125 33.4469 19.3986 34.0447C19.6431 35.8177 20.1144 37.2646 22.0708 37.4532C23.9672 37.6342 26.5401 37.6354 28.1238 36.3854C28.8291 35.8283 29.2916 34.9862 29.7693 34.2357C29.9838 33.8972 30.1807 33.5452 30.4305 33.2302C30.749 32.8282 31.0969 32.7395 31.5435 32.5796C31.9549 32.8735 32.1312 33.075 32.22 33.6909C32.3469 34.5989 32.84 35.3852 33.4129 36.0804C34.8151 37.7847 37.1359 37.6736 39.1199 37.6419C40.8047 37.6148 41.9789 36.5253 42.4632 34.9439C42.6066 34.4767 42.5948 33.953 42.6236 33.4705C42.6542 32.9581 42.8875 32.7266 43.1966 32.3628C43.4951 32.0102 43.6409 31.6064 43.5368 31.2168C43.6177 31.0473 43.6735 30.867 43.7026 30.6814C43.7778 30.1149 43.4775 29.5936 42.8563 29.5748Z" fill="#756C6C"/>
<path d="M28.9652 32.2471C28.955 32.184 28.9222 32.1268 28.8729 32.0861C28.8896 31.9673 28.8661 31.8463 28.8063 31.7424C28.7465 31.6384 28.6537 31.5573 28.5427 31.5119C26.5569 30.6892 24.2785 30.6046 22.1958 31.03C21.6304 31.1476 21.1226 31.2116 20.6607 31.5084C20.6362 31.4503 20.5964 31.4 20.5454 31.3628C20.4945 31.3256 20.4344 31.303 20.3716 31.2974C20.0654 31.2491 19.7521 31.2765 19.4589 31.3774C19.1957 31.4655 18.8025 31.7176 18.5474 31.5472C18.3259 31.3991 18.0497 31.7523 18.2612 31.918C18.3926 32.0266 18.5383 32.1164 18.6944 32.1848C18.6127 32.3088 18.6315 32.4875 18.8195 32.5374C19.2009 32.6344 19.2756 32.789 19.285 33.158C19.302 33.5331 19.3472 33.9063 19.4202 34.2746C19.4789 34.5908 19.9684 34.5731 20.039 34.2746C20.039 34.2699 20.039 34.2658 20.0419 34.2605C20.0701 34.5255 20.4944 34.515 20.4598 34.2546C20.3757 33.627 20.636 32.7555 21.1714 32.3476C22.1946 32.2336 23.1772 32.3129 24.2209 32.3694C24.892 32.4058 25.5631 32.3964 26.2343 32.4458C26.6015 32.4728 26.9718 32.5509 27.3415 32.6068C27.4214 32.632 27.4989 32.655 27.5659 32.6791C27.8051 32.766 28.0102 32.8465 28.1695 33.0317C28.0519 33.5606 27.8827 34.0848 27.6065 34.5473C27.2409 35.1591 26.3565 35.4494 25.723 35.6445C24.3713 36.0611 22.3579 36.3297 21.0674 35.6539C21.0522 35.6454 21.0344 35.6426 21.0173 35.6461C21.0002 35.6496 20.985 35.6592 20.9743 35.673C20.9636 35.6868 20.9582 35.7039 20.9592 35.7214C20.9601 35.7388 20.9672 35.7553 20.9792 35.7679C21.3921 36.1735 21.8911 36.4809 22.4391 36.667C22.3627 36.6606 22.2856 36.6541 22.2087 36.6518C21.7221 36.6382 21.3859 36.3944 20.9346 36.3197C20.8919 36.3092 20.8471 36.3099 20.8048 36.3218C20.7624 36.3337 20.7238 36.3562 20.6927 36.3874C20.6616 36.4185 20.6391 36.4572 20.6273 36.4996C20.6155 36.542 20.6149 36.5867 20.6255 36.6294C20.77 37.5109 22.0359 37.7736 22.7728 37.8471C23.9882 37.9682 25.2822 37.6937 26.4276 37.3076C27.3814 36.9867 28.267 36.5883 28.8753 35.7614C29.4835 34.9346 29.7092 33.3843 29.4283 32.4117C29.4153 32.3653 29.3913 32.3228 29.3584 32.2876C29.3256 32.2524 29.2847 32.2256 29.2394 32.2095C29.194 32.1934 29.1454 32.1884 29.0977 32.1949C29.05 32.2015 29.0045 32.2194 28.9652 32.2471Z" fill="#635B5B"/>
<path d="M43.9018 31.448C43.8924 31.4132 43.8762 31.3806 43.8541 31.3521C43.832 31.3236 43.8045 31.2998 43.7731 31.282C43.7417 31.2642 43.7072 31.2527 43.6714 31.2483C43.6356 31.244 43.5993 31.2467 43.5645 31.2564C43.2971 31.3569 43.169 31.5503 42.8658 31.5397C42.5755 31.5309 42.2493 31.408 41.9678 31.4809C41.9003 31.5 41.8412 31.5414 41.8003 31.5984C41.7572 31.5255 41.694 31.4665 41.6181 31.4286C40.7202 30.9526 39.5965 31.1101 38.6104 31.0848C37.4875 31.0494 36.3637 31.1084 35.2507 31.2611C34.5067 31.3692 33.7227 31.5279 33.1938 32.1085C32.7877 32.5581 32.7824 33.1252 32.9276 33.6647C32.8435 33.5013 32.7625 33.3368 32.6825 33.174C32.525 32.8508 32.0725 33.1334 32.2089 33.4514C32.8183 34.87 33.004 36.4603 34.6418 37.095C35.5745 37.4512 36.5497 37.6843 37.5426 37.7884C38.3695 37.8813 39.5466 38.0182 40.2653 37.5305C40.2825 37.517 40.2988 37.5025 40.3141 37.487C41.1915 37.4194 41.7157 36.1594 42.0407 35.4648C42.5161 34.4475 43.1108 33.402 42.8229 32.336C43.4311 32.3407 44.0247 32.0915 43.9018 31.448ZM41.7086 33.4614C41.5864 33.9727 41.245 34.3975 41.0034 34.8553C40.8113 35.2215 40.6467 35.5941 40.4257 35.9455C40.2494 36.2288 39.9621 36.3504 39.7511 36.5861C39.2392 36.5402 38.6962 36.6401 38.1855 36.629C37.2834 36.6096 36.3796 36.4362 35.5087 36.2111C34.6189 35.9808 34.0036 35.3884 33.517 34.6743C33.5935 34.6715 33.6662 34.64 33.7206 34.5861C33.775 34.5323 33.8072 34.4599 33.8109 34.3834C33.8109 33.5666 33.5758 32.6692 34.5502 32.3648C35.0726 32.202 35.6426 32.1885 36.1845 32.1403C37.8558 31.9934 39.6147 31.9893 41.2708 32.2437C41.3718 32.2573 41.4746 32.2402 41.5657 32.1945C41.6569 32.1487 41.732 32.0766 41.7815 31.9875C41.7922 32.0038 41.8048 32.0188 41.8191 32.0321C41.8256 32.038 41.8332 32.0433 41.8403 32.0486C41.8179 32.5229 41.8215 32.9942 41.7086 33.4614Z" fill="#635B5B"/>
<path d="M43.7134 30.0237C43.255 29.0575 40.869 29.3825 40.0322 29.3901C38.781 29.4019 37.5475 29.3461 36.2993 29.4789C34.9723 29.6199 33.7611 30.1124 32.4894 30.4779C30.9326 30.9251 29.521 30.5302 28.023 30.0848C26.5938 29.6605 25.1082 29.5047 23.6231 29.4483C22.2662 29.3966 20.7358 29.3502 19.4165 29.7122C19.2331 29.7618 19.0618 29.8486 18.9134 29.9672C18.7783 29.7974 18.4392 29.7868 18.3987 30.0524C18.354 30.3492 18.2864 30.6131 18.3311 30.9169C18.3557 31.0856 18.3933 31.2531 18.4227 31.4217C18.4521 31.5904 18.525 31.6862 18.599 31.8366C18.6413 31.9242 18.7689 31.8954 18.7942 31.8108C18.8247 31.7115 18.8947 31.6221 18.9005 31.5169C18.9099 31.3471 18.9199 31.1784 18.9405 31.0098C18.9405 30.9916 18.9434 30.9739 18.9452 30.9563C19.0968 30.7106 19.2167 30.4773 19.5916 30.341C20.154 30.1365 20.8328 30.2011 21.4246 30.18C22.6493 30.1359 23.8587 30.1371 25.0805 30.2493C27.4671 30.4691 29.6744 31.7132 32.0962 31.3218C33.1 31.1596 34.0561 30.73 35.0346 30.4615C36.3545 30.0989 37.7632 30.1153 39.1207 30.1283C39.7672 30.1347 40.4095 30.1282 41.0548 30.133C41.398 30.1359 42.8795 30.0519 43.047 30.4186C43.2492 30.8699 43.9279 30.475 43.7134 30.0237Z" fill="#8C8585"/>
<path d="M27.5275 33.4527C27.2337 34.4741 26.4662 34.9807 25.513 35.3068C25.0778 35.4454 24.6297 35.5391 24.1754 35.5866C23.844 35.6277 23.5519 35.5789 23.2722 35.774C23.243 35.792 23.2189 35.8172 23.2022 35.8471C23.1855 35.8771 23.1768 35.9108 23.1768 35.945C23.1768 35.9793 23.1855 36.013 23.2022 36.0429C23.2189 36.0729 23.243 36.098 23.2722 36.1161C23.948 36.5304 25.255 36.0167 25.912 35.7299C26.8523 35.3186 27.447 34.4594 27.675 33.4933C27.6804 33.4737 27.6778 33.4528 27.6678 33.4352C27.6578 33.4175 27.6411 33.4046 27.6216 33.3992C27.602 33.3938 27.5811 33.3965 27.5635 33.4065C27.5458 33.4165 27.5329 33.4331 27.5275 33.4527Z" fill="#8C8585"/>
<path d="M41.2555 33.2127C41.168 34.1359 40.7642 34.7806 39.9709 35.2578C39.6111 35.4629 39.2217 35.6112 38.8167 35.6974C38.4505 35.7838 38.075 35.6927 37.7083 35.7779C37.4409 35.8402 37.4515 36.2386 37.7083 36.3068C38.5311 36.5254 39.6847 36.0159 40.3529 35.5546C41.1221 35.0257 41.6458 34.1442 41.6563 33.2121C41.6628 32.9477 41.2796 32.9577 41.2555 33.2127Z" fill="#8C8585"/>
<path d="M23.7709 33.1668C24.1641 32.6267 24.616 32.1284 24.7999 31.4743C24.9087 31.087 24.492 30.8202 24.1611 30.9836C23.3161 31.4014 22.6614 32.2412 22.2394 33.0692C22.0784 33.3842 22.143 33.8103 22.4804 33.9884C22.9441 34.2334 23.587 34.3063 23.2414 34.9451C22.9523 35.4816 22.4804 35.6015 22.4075 36.238C22.3817 36.4672 22.615 36.6429 22.8189 36.6494C23.7521 36.6805 24.4209 35.4922 24.6548 34.71C24.8769 33.9707 24.3433 33.51 23.7709 33.1668Z" fill="#AAA7A7"/>
<path d="M25.5745 31.5139C25.2148 31.6873 24.8052 32.0652 24.6894 32.4677C24.5443 32.9708 24.6395 32.9908 24.8957 33.3757C25.4834 34.2572 24.9903 35.0799 24.5108 35.8169C24.2922 36.1542 23.9678 36.5015 24.0718 36.9206C24.0778 36.9431 24.0903 36.9634 24.1078 36.9788C24.1253 36.9942 24.147 37.004 24.1702 37.007C24.1933 37.01 24.2168 37.0061 24.2377 36.9957C24.2586 36.9854 24.2759 36.969 24.2875 36.9488C24.8334 36.1019 25.3617 35.1857 25.4881 34.172C25.5333 33.8029 25.2789 33.5032 25.0462 33.2593C24.6313 32.8239 25.5269 32.0493 25.6979 31.6091C25.7273 31.5333 25.6332 31.4863 25.5745 31.5139Z" fill="#AAA7A7"/>
<path d="M37.9247 33.4917C37.7661 33.3331 37.5651 33.2235 37.3458 33.1762C37.6326 32.6578 37.9682 32.17 38.1868 31.6188C38.3555 31.1927 37.8107 30.8842 37.4698 31.0676C36.5883 31.5407 36.0835 32.5955 35.7403 33.4912C35.6104 33.8308 35.8808 34.221 36.2052 34.3104C36.4095 34.3658 36.619 34.4001 36.8304 34.4126C37.0849 34.4326 36.7611 34.9521 36.7129 35.0514C36.4725 35.5721 36.0958 35.9471 36.0418 36.5312C36.013 36.8433 36.3621 37.0531 36.6353 36.9831C37.4845 36.7657 38.1045 35.4987 38.2079 34.6794C38.2597 34.2769 38.2356 33.8009 37.9247 33.4917Z" fill="#AAA7A7"/>
<path d="M38.9358 31.2914C38.6144 31.8279 38.3852 32.3944 38.0825 32.9404C38.0302 33.0338 38.0496 33.1907 38.1607 33.2384C39.6299 33.8689 37.9926 35.7037 37.8886 36.7262C37.8698 36.909 38.1589 36.9842 38.2365 36.8202C38.7431 35.7513 39.8702 33.799 38.5668 32.9668C38.8318 32.4603 38.9593 31.9261 39.1797 31.3942C39.2397 31.2508 39.0111 31.1662 38.9358 31.2914Z" fill="#AAA7A7"/>
<path d="M18.1752 30.1913C20.0811 29.3139 22.4253 29.5313 24.4763 29.6036C25.7057 29.6465 27.0115 29.6624 28.1822 30.0673C29.1524 30.4016 30.2355 31.0305 31.2927 30.7601C31.4732 30.7143 31.4632 30.4569 31.2927 30.4075C30.7674 30.25 30.2202 30.2259 29.6925 30.0655C29.0919 29.8827 28.5236 29.6053 27.9236 29.4191C26.7142 29.0412 25.2791 29.0847 24.022 29.0512C22.1491 29.0012 19.6033 28.7738 18.0389 30.0179C17.9319 30.1031 18.0683 30.2436 18.1752 30.1942V30.1913Z" fill="#F34D65"/>
<path d="M18.5181 32.3705C19.017 33.0498 18.97 33.9155 19.1475 34.7065C19.3379 35.5545 19.64 36.399 20.2582 37.0308C21.3389 38.135 23.5127 38.0997 24.9185 37.9951C25.6583 37.9405 26.4341 37.8388 27.1211 37.5497C27.9685 37.193 28.6743 36.4713 29.2103 35.7426C29.5954 35.2214 29.9074 34.65 30.1376 34.0442C30.2604 33.7251 30.3962 33.4095 30.5396 33.0992C30.683 32.7889 30.9233 32.3411 31.2225 32.7789C31.3617 32.9828 31.6832 32.803 31.5575 32.5826C30.9204 31.4661 30.0001 32.9634 29.7421 33.5758C29.0422 35.2336 28.0032 36.8668 26.1167 37.2746C24.5247 37.6184 22.2616 37.7642 20.8276 36.8597C19.972 36.3203 19.6723 35.0767 19.5095 34.1447C19.3961 33.4953 19.3919 32.5151 18.7343 32.1536C18.605 32.0831 18.4176 32.2347 18.5175 32.3705H18.5181Z" fill="#F34D65"/>
<path d="M43.9607 30.0152C42.3857 28.7628 39.8598 29.0161 37.9775 29.0484C36.7657 29.069 35.4675 29.0925 34.2822 29.3599C33.6698 29.498 33.0916 29.7813 32.5045 29.9964C31.9174 30.2114 31.3003 30.2273 30.7068 30.4077C30.5364 30.4589 30.5264 30.7163 30.7068 30.7603C31.6817 31.0095 32.7307 30.4847 33.6211 30.1397C34.7853 29.6896 36.0588 29.6749 37.2923 29.6108C38.3348 29.5591 39.3873 29.5603 40.4311 29.5779C41.6158 29.5973 42.7359 29.6884 43.8249 30.1897C43.9319 30.2391 44.0682 30.0986 43.9607 30.0134V30.0152Z" fill="#F34D65"/>
<path d="M43.2644 32.1536C42.6526 32.4898 42.6074 33.3778 42.5128 33.9895C42.3653 34.9427 42.0926 35.9835 41.3962 36.6852C40.7415 37.344 39.5591 37.4345 38.6929 37.4756C37.7516 37.5212 36.8083 37.4537 35.8832 37.2746C34.0696 36.9179 32.9595 35.2895 32.3054 33.6898C32.0562 33.081 31.1095 31.4167 30.4425 32.5856C30.3173 32.8059 30.6382 32.9858 30.778 32.7818C31.2258 32.126 31.6866 33.6111 31.8218 33.9431C32.088 34.5972 32.3648 35.1666 32.7902 35.7455C33.3262 36.4742 33.9967 37.1218 34.813 37.5244C35.4959 37.8617 36.3333 37.9322 37.0815 37.9981C38.5824 38.1309 40.5417 38.0733 41.7417 37.0337C42.35 36.5048 42.6233 35.6233 42.8137 34.8722C43.0276 34.0365 42.9517 33.0951 43.4818 32.3734C43.5817 32.2377 43.3943 32.086 43.2656 32.1566L43.2644 32.1536Z" fill="#F34D65"/>
<path d="M20.019 31.4503C20.6525 31.3857 21.2895 31.4203 21.9231 31.4003C22.9574 31.3686 23.994 31.3416 25.0284 31.3757C25.7865 31.4021 29.3548 31.4215 28.7254 32.9389C28.6819 33.0435 28.8277 33.1487 28.9164 33.0858C29.4741 32.6926 29.1832 31.9868 28.7895 31.6166C28.1577 31.0242 26.9636 30.9637 26.1549 30.8849C24.1656 30.6916 21.9236 30.6722 19.9961 31.2787C19.9067 31.3069 19.9179 31.4597 20.019 31.4491V31.4503Z" fill="#F34D65"/>
<path d="M20.415 31.1983C19.3431 31.5814 19.6057 33.13 19.8108 33.9715C20.0782 35.0722 20.5748 36.3922 21.7096 36.8135C23.3551 37.4265 25.4896 37.3424 27.0187 36.4562C28.4567 35.6211 29.2395 34.1055 29.2625 32.4853C29.2666 32.2085 28.8393 32.2091 28.8335 32.4853C28.8041 33.9792 28.1576 35.1481 26.9388 36.0049C25.6612 36.9023 23.8012 36.9123 22.3408 36.5714C21.8119 36.4486 21.3899 36.2975 21.0685 35.8556C20.747 35.4137 20.5349 34.9089 20.355 34.407C20.073 33.6207 19.6028 32.0298 20.5472 31.5115C20.7147 31.4192 20.6001 31.1325 20.415 31.1983Z" fill="#F34D65"/>
<path d="M41.948 31.2797C40.0475 30.682 37.8731 30.715 35.9102 30.8754C35.1051 30.9406 33.8463 30.9929 33.2069 31.5712C32.7956 31.9414 32.4365 32.669 33.0306 33.0856C33.1194 33.1485 33.2657 33.0433 33.2222 32.9387C32.601 31.4448 36.0389 31.4149 36.7912 31.3808C37.8308 31.3338 38.8727 31.3726 39.9129 31.3972C40.5834 31.4137 41.2581 31.382 41.928 31.4501C42.0297 31.4607 42.0409 31.3079 41.9515 31.2797H41.948Z" fill="#F34D65"/>
<path d="M41.3987 31.5108C42.3155 32.0145 41.8823 33.4966 41.6338 34.2729C41.4683 34.798 41.235 35.2992 40.9397 35.7639C40.613 36.2751 40.1798 36.4191 39.6063 36.5707C38.1718 36.951 36.4381 36.8458 35.1399 36.0894C33.8259 35.3225 33.1418 33.9738 33.1107 32.4846C33.1054 32.2084 32.6776 32.2078 32.6817 32.4846C32.7058 34.1589 33.4645 35.3866 34.7932 36.368C36.213 37.4176 38.4597 37.3518 40.0653 36.8699C41.2923 36.502 41.7695 35.252 42.098 34.1078C42.3419 33.2545 42.6351 31.5937 41.5291 31.1982C41.3446 31.1324 41.2294 31.4191 41.3975 31.5114L41.3987 31.5108Z" fill="#F34D65"/>
<path d="M29.5096 37.4098C29.8446 38.0944 30.6474 38.3877 31.3655 38.4271C31.9185 38.4582 33.0568 38.1168 32.9258 37.3816C32.9206 37.3632 32.9112 37.3462 32.8984 37.3319C32.8857 37.3177 32.8698 37.3065 32.8521 37.2993C32.8343 37.2921 32.8152 37.2891 32.7961 37.2904C32.777 37.2917 32.7584 37.2974 32.7419 37.307C32.5297 37.4374 32.4427 37.6666 32.2382 37.8176C31.9902 38.0004 31.6629 38.0421 31.3655 38.0492C31.0424 38.0545 30.722 37.9908 30.4254 37.8624C30.1289 37.734 29.8632 37.5438 29.646 37.3046C29.5772 37.2264 29.4697 37.3258 29.5096 37.4098Z" fill="black"/>
</g>
<defs>
<clipPath id="clip0_298_3844">
<rect width="26" height="12.4241" fill="white" transform="translate(18 29)"/>
</clipPath>
</defs>
</svg>
