<svg width="242" height="242" viewBox="0 0 242 242" fill="none" xmlns="http://www.w3.org/2000/svg">
<rect width="242" height="242" rx="12" fill="#FEE6DC"/>
<path d="M122.871 151.859C43.7951 151.859 3.40845 211.953 0 242H242V42C230.639 78.6197 201.947 151.859 122.871 151.859Z" fill="#F8D3CB" fill-opacity="0.5"/>
<path fill-rule="evenodd" clip-rule="evenodd" d="M144.417 137.33C144.007 132.704 143.174 128.543 141.321 125.41L147.931 118.801C154.676 118.324 160 112.7 160 105.833C160 98.6536 154.18 92.8333 147 92.8333C146.905 92.8333 146.811 92.8344 146.716 92.8364C145.085 86.6865 136.617 82 126.417 82C117.395 82 109.728 85.6663 106.948 90.7685C98.9827 91.5353 92.8335 96.5327 92.8335 102.583C92.8335 109.165 100.109 114.5 109.083 114.5C113.401 114.5 117.326 113.265 120.236 111.25C120.354 111.466 120.479 111.695 120.612 111.933C121.604 113.711 123.039 116.094 124.798 118.491C126.549 120.875 128.676 123.346 131.068 125.24C133.098 126.847 135.464 128.152 138.059 128.499C139.115 130.721 139.752 133.784 140.1 137.713C140.498 142.201 140.5 147.512 140.5 153.5V155.667H144.833V153.425C144.833 147.525 144.833 142.029 144.417 137.33ZM138.373 106.666C138.253 105.407 137.59 104.263 136.557 103.534C135.524 102.805 134.223 102.563 132.997 102.873C130.991 103.38 128.769 103.667 126.417 103.667C125.598 103.667 124.795 103.632 124.01 103.565C122.448 103.432 120.936 104.153 120.056 105.451C118.388 107.911 114.39 110.167 109.083 110.167C105.421 110.167 102.278 109.072 100.156 107.515C98.0302 105.957 97.1668 104.162 97.1668 102.583C97.1668 99.7755 100.445 95.7479 107.364 95.0819C108.796 94.9441 110.066 94.1047 110.754 92.8416C112.464 89.7025 118.204 86.3333 126.417 86.3333C130.886 86.3333 134.831 87.3653 137.722 88.9255C140.677 90.5201 142.121 92.4145 142.528 93.9474C143.041 95.8805 144.81 97.2115 146.809 97.1686C146.873 97.1673 146.936 97.1667 147 97.1667C151.787 97.1667 155.667 101.047 155.667 105.833C155.667 110.62 151.787 114.5 147 114.5C144.982 114.5 143.124 113.809 141.65 112.652L140.921 112.01C139.508 110.62 138.57 108.751 138.373 106.666ZM135.99 112.748C135.622 112.163 135.299 111.547 135.026 110.904C134.519 109.709 134.186 108.422 134.059 107.075C132.698 107.418 131.266 107.673 129.781 107.827C128.686 107.941 127.562 108 126.417 108C125.476 108 124.55 107.96 123.642 107.883C123.589 107.961 123.535 108.039 123.479 108.116C123.713 108.569 124.021 109.149 124.396 109.822C125.331 111.497 126.669 113.718 128.291 115.926C128.371 116.034 128.451 116.143 128.532 116.251L128.532 115.935C130.926 115.933 133.438 114.64 135.524 113.101C135.683 112.983 135.839 112.865 135.99 112.748ZM131.585 119.863C132.29 120.587 133.016 121.255 133.758 121.842C134.826 122.688 135.869 123.321 136.877 123.726L142.551 118.052C141.211 117.564 139.974 116.862 138.881 115.987C138.632 116.185 138.37 116.386 138.097 116.588C136.416 117.828 134.149 119.199 131.585 119.863Z" fill="#8E5BA6"/>
<path fill-rule="evenodd" clip-rule="evenodd" d="M108.004 124.251C108.007 127.242 105.584 129.669 102.592 129.672C99.6007 129.674 97.1736 127.251 97.171 124.26C97.1686 121.268 99.5918 118.841 102.583 118.838C105.575 118.836 108.002 121.259 108.004 124.251ZM103.671 124.254C103.672 124.853 103.187 125.338 102.589 125.338C101.99 125.339 101.505 124.854 101.504 124.256C101.504 123.658 101.989 123.172 102.587 123.172C103.185 123.171 103.671 123.656 103.671 124.254ZM92.8376 132.917C92.8402 135.909 90.417 138.336 87.4255 138.338C84.4339 138.341 82.0068 135.918 82.0044 132.926C82.0019 129.935 84.4251 127.508 87.4166 127.505C90.4082 127.503 92.8352 129.926 92.8376 132.917ZM88.5044 132.921C88.5049 133.519 88.0203 134.005 87.422 134.005C86.8236 134.006 86.3382 133.521 86.3377 132.923C86.3372 132.324 86.8219 131.839 87.4202 131.838C88.0185 131.838 88.5039 132.323 88.5044 132.921ZM124.259 138.338C127.25 138.336 129.674 135.908 129.671 132.917C129.669 129.925 127.241 127.502 124.25 127.505C121.258 127.507 118.835 129.934 118.838 132.926C118.84 135.917 121.267 138.34 124.259 138.338ZM124.255 134.005C124.854 134.004 125.338 133.519 125.338 132.92C125.337 132.322 124.852 131.838 124.253 131.838C123.655 131.838 123.171 132.324 123.171 132.922C123.172 133.521 123.657 134.005 124.255 134.005Z" fill="#8E5BA6"/>
<path d="M101.5 131.833C103.893 131.833 105.833 133.773 105.833 136.167V140.5H110.167C112.56 140.5 114.5 142.44 114.5 144.833C114.5 147.227 112.56 149.167 110.167 149.167H101.5C99.1067 149.167 97.1667 147.227 97.1667 144.833V136.167C97.1667 133.773 99.1067 131.833 101.5 131.833ZM90.6667 144.833C90.6667 142.44 88.7266 140.5 86.3333 140.5C83.9401 140.5 82 142.44 82 144.833V155.667C82 158.06 83.9401 160 86.3333 160H95C97.3933 160 99.3333 158.06 99.3333 155.667C99.3333 153.273 97.3933 151.333 95 151.333H90.6667V144.833ZM125.333 140.5C122.94 140.5 121 142.44 121 144.833V151.333H116.667C114.273 151.333 112.333 153.273 112.333 155.667C112.333 158.06 114.273 160 116.667 160H125.333C127.727 160 129.667 158.06 129.667 155.667V144.833C129.667 142.44 127.727 140.5 125.333 140.5Z" fill="#8E5BA6"/>
</svg>
